<?xml version="1.0" encoding="UTF-8" standalone="no"?>
<!-- Generator: Adobe Illustrator 23.1.1, SVG Export Plug-In . SVG Version: 6.00 Build 0)  -->

<svg
   version="1.1"
   id="Calque_1"
   x="0px"
   y="0px"
   viewBox="0 0 362.79999 158.2"
   xml:space="preserve"
   width="362.79999"
   height="158.2"
   xmlns="http://www.w3.org/2000/svg"
   xmlns:svg="http://www.w3.org/2000/svg"><defs
   id="defs126" />
<path
   d="m 145.5,67.1 h 4.8 c 0.4,0 0.8,-0.4 0.8,-0.8 V 55.8 h 11.4 v 10.5 c 0,0.4 0.3,0.8 0.8,0.8 h 4.8 c 0.4,0 0.8,-0.4 0.8,-0.8 V 39.8 c 0,-0.4 -0.4,-0.8 -0.8,-0.8 h -4.8 c -0.4,0 -0.8,0.4 -0.8,0.8 V 50 H 151.1 V 39.9 c 0,-0.4 -0.3,-0.8 -0.8,-0.8 h -4.8 c -0.4,0 -0.8,0.4 -0.8,0.8 v 26.5 c 0,0.4 0.4,0.7 0.8,0.7"
   id="path81"
   clip-path="none" />
<path
   d="m 198,67.5 c 8,0 14.4,-6.4 14.4,-14.4 0,-8 -6.4,-14.4 -14.4,-14.4 -8,0 -14.4,6.4 -14.4,14.4 0.1,8.1 6.4,14.4 14.4,14.4 m 0,-22.4 c 4.4,0 8,3.6 8,8 0,4.4 -3.6,8 -8,8 -4.4,0 -8,-3.6 -8,-8 0.1,-4.3 3.7,-8 8,-8"
   id="path83"
   clip-path="none" />
<path
   d="m 193.2,36.5 c 0.2,0.3 0.4,0.4 0.9,0.2 l 4,-2.3 4,2.3 c 0.3,0.2 0.6,0.1 0.8,-0.2 l 1.4,-1.8 c 0.2,-0.3 0,-0.6 -0.2,-0.8 l -5.5,-4.2 c -0.2,-0.2 -0.6,-0.2 -1,0 l -5.4,4.2 c -0.2,0.2 -0.4,0.5 -0.2,0.8 z"
   id="path85"
   clip-path="none" />
<path
   d="m 225.1,45 h 5.7 v 21.4 c 0,0.4 0.4,0.8 0.8,0.8 h 4.8 c 0.4,0 0.8,-0.4 0.8,-0.8 V 45 h 5.7 c 0.4,0 0.8,-0.4 0.8,-0.8 v -4.4 c 0,-0.4 -0.3,-0.8 -0.8,-0.8 h -17.8 c -0.4,0 -0.8,0.4 -0.8,0.8 v 4.4 c 0,0.5 0.4,0.8 0.8,0.8"
   id="path87"
   clip-path="none" />
<path
   d="m 258.5,67.1 h 16.6 c 0.4,0 0.8,-0.4 0.8,-0.8 V 62 c 0,-0.4 -0.3,-0.8 -0.8,-0.8 H 264 v -5.4 h 9.1 c 0.4,0 0.8,-0.3 0.8,-0.8 v -4.4 c 0,-0.4 -0.4,-0.8 -0.8,-0.8 H 264 v -5 h 11.1 c 0.4,0 0.8,-0.4 0.8,-0.8 v -4.4 c 0,-0.4 -0.3,-0.8 -0.8,-0.8 h -16.6 c -0.4,0 -0.8,0.4 -0.8,0.8 v 26.5 c 0,0.7 0.4,1 0.8,1"
   id="path89"
   clip-path="none" />
<path
   d="m 307.1,61.3 h -9.5 V 39.9 c 0,-0.4 -0.4,-0.8 -0.8,-0.8 H 292 c -0.4,0 -0.8,0.4 -0.8,0.8 v 26.5 c 0,0.4 0.3,0.8 0.8,0.8 h 15 c 0.4,0 0.8,-0.4 0.8,-0.8 V 62 c 0,-0.4 -0.3,-0.7 -0.7,-0.7"
   id="path91"
   clip-path="none" />
<path
   d="m 145.5,109.1 h 15 c 0.4,0 0.8,-0.4 0.8,-0.8 V 104 c 0,-0.4 -0.3,-0.8 -0.8,-0.8 H 151 V 81.8 c 0,-0.4 -0.4,-0.8 -0.8,-0.8 h -4.8 c -0.4,0 -0.8,0.4 -0.8,0.8 v 26.5 c 0.1,0.5 0.4,0.8 0.9,0.8"
   id="path93"
   clip-path="none" />
<path
   d="M 186.8,108.4 V 104 c 0,-0.4 -0.3,-0.8 -0.8,-0.8 h -11.1 v -5.4 h 9.1 c 0.4,0 0.8,-0.3 0.8,-0.8 v -4.4 c 0,-0.4 -0.4,-0.8 -0.8,-0.8 h -9.1 v -5 H 186 c 0.4,0 0.8,-0.4 0.8,-0.8 v -4.4 c 0,-0.4 -0.3,-0.8 -0.8,-0.8 h -16.6 c -0.4,0 -0.8,0.4 -0.8,0.8 v 26.5 c 0,0.4 0.3,0.8 0.8,0.8 H 186 c 0.4,0.2 0.8,-0.1 0.8,-0.5"
   id="path95"
   clip-path="none" />
<path
   d="m 227.5,101.4 c 0,-3.7 -3.2,-5.6 -5.4,-6.5 1.9,-1 4.6,-3.2 4.6,-6.3 0,-4.2 -3.9,-7.4 -8.6,-7.4 h -9.3 c -0.4,0 -0.8,0.4 -0.8,0.8 v 26.5 c 0,0.4 0.3,0.8 0.8,0.8 h 9.9 c 4.8,-0.2 8.8,-3.4 8.8,-7.9 M 214.3,86.9 h 3.1 c 1.5,0 2.8,1.1 2.8,2.7 0,1.6 -1.3,2.9 -2.8,2.9 h -3.1 z m 0,16.5 v -5.7 h 3.2 c 1.6,0 3.3,1.2 3.3,2.8 0,1.6 -1.3,2.9 -2.9,2.9 z"
   id="path97"
   clip-path="none" />
<path
   d="m 262.8,95.2 c 0,-8 -6.4,-14.4 -14.4,-14.4 -8,0 -14.4,6.4 -14.4,14.4 0,8 6.4,14.4 14.4,14.4 8,-0.1 14.4,-6.4 14.4,-14.4 m -22.3,0 c 0,-4.4 3.6,-8 8,-8 4.4,0 8,3.6 8,8 0,4.4 -3.6,8 -8,8 -4.4,-0.1 -8,-3.7 -8,-8"
   id="path99"
   clip-path="none" />
<path
   d="M 276.8,81.1 H 272 c -0.4,0 -0.8,0.4 -0.8,0.8 v 26.5 c 0,0.4 0.4,0.8 0.8,0.8 h 4.8 c 0.4,0 0.8,-0.4 0.8,-0.8 V 81.9 c 0,-0.4 -0.4,-0.8 -0.8,-0.8"
   id="path101"
   clip-path="none" />
<path
   d="m 294,97.5 c 2.7,1.1 4.1,2.4 4.1,4 0,1.4 -1.2,2.4 -2.8,2.4 -2.6,0 -5.5,-2.1 -5.7,-2.2 -0.3,-0.2 -1,-0.3 -1.4,0.2 l -1.9,3.3 c -0.3,0.6 -0.2,0.7 0.2,1.1 0.9,0.9 3.8,3.1 9,3.1 5.9,0 9.4,-4.2 9.4,-8.3 0,-5.4 -5,-7.9 -8.1,-9.1 -3.2,-1.3 -4.4,-2.4 -4.4,-3.9 0,-1.1 1.1,-2 2.5,-2 2.4,0 5.4,2.2 5.7,2.4 0.4,0.3 1.1,-0.1 1.4,-0.5 l 2,-3.1 c 0.2,-0.3 0.2,-1 -0.2,-1.3 -1.2,-0.9 -4.4,-3 -8.6,-3 -6.2,0 -9.2,4 -9.2,8 0.2,4.9 4.5,7.6 8,8.9"
   id="path103"
   clip-path="none" />
<path
   d="m 155.2,123.1 h -9.8 c -0.4,0 -0.7,0.4 -0.7,0.8 v 26.5 c 0,0.4 0.3,0.8 0.7,0.8 h 9.8 c 7.7,0 14,-6.3 14,-14 0,-7.8 -6.3,-14.1 -14,-14.1 m -0.4,22.1 H 151 V 129 h 3.8 c 4.5,0 7.8,3.6 7.8,8.1 0,4.6 -3.3,8.1 -7.8,8.1"
   id="path105"
   clip-path="none" />
<path
   d="m 190,122.7 c -8,0 -14.4,6.4 -14.4,14.4 0,8 6.4,14.4 14.4,14.4 8,0 14.4,-6.4 14.4,-14.4 0,-7.9 -6.4,-14.4 -14.4,-14.4 m 0,22.4 c -4.4,0 -8,-3.6 -8,-8 0,-4.4 3.6,-8 8,-8 4.4,0 8,3.6 8,8 0,4.4 -3.6,8 -8,8"
   id="path107"
   clip-path="none" />
<path
   d="m 234.2,131.8 c 0,-4.8 -3.9,-8.6 -8.7,-8.6 h -12 c -0.4,0 -0.8,0.4 -0.8,0.8 v 26.5 c 0,0.4 0.3,0.8 0.8,0.8 h 4.8 c 0.4,0 0.8,-0.4 0.8,-0.8 v -10.2 h 2.8 l 5.3,10.6 c 0.1,0.2 0.3,0.4 0.6,0.4 h 5.3 c 0.7,0 1,-0.6 0.7,-1.2 l -5.5,-10.2 c 3.5,-1.5 5.9,-4.4 5.9,-8.1 m -9.2,3.3 h -5.9 v -6.2 h 5.9 c 1.6,0 3,1.4 3,3 0,1.7 -1.4,3.2 -3,3.2"
   id="path109"
   clip-path="none" />
<path
   d="m 267.9,122.7 h -0.6 c -0.2,0 -0.6,0.2 -0.7,0.4 l -9.3,17.3 h -0.1 l -9.3,-17.3 c -0.1,-0.2 -0.5,-0.4 -0.7,-0.4 h -0.6 c -0.3,0 -0.7,0.3 -0.7,0.6 l -4.5,26.9 c -0.1,0.5 0.3,0.9 0.8,0.9 h 4.7 c 0.4,0 0.7,-0.3 0.8,-0.6 l 1.8,-12.4 h 0.1 l 6.8,13 c 0.1,0.2 0.4,0.4 0.7,0.4 h 0.7 c 0.2,0 0.6,-0.2 0.7,-0.4 l 6.7,-13 h 0.1 l 1.8,12.4 c 0,0.3 0.4,0.6 0.8,0.6 h 4.7 c 0.5,0 0.8,-0.4 0.8,-0.9 l -4.5,-26.9 c -0.3,-0.3 -0.7,-0.6 -1,-0.6"
   id="path111"
   clip-path="none" />
<path
   d="m 292.5,123.2 c -0.1,-0.2 -0.4,-0.4 -0.7,-0.4 h -0.4 c -0.3,0 -0.6,0.2 -0.7,0.4 l -12.5,26.9 c -0.2,0.5 0.1,1 0.7,1 h 4.4 c 0.8,0 1.2,-0.5 1.4,-1 l 1.4,-3.2 H 297 l 1.4,3.2 c 0.4,0.8 0.7,1 1.4,1 h 4.4 c 0.6,0 0.9,-0.5 0.7,-1 z m -3.9,18.3 3,-6.6 v 0 l 3,6.6 z"
   id="path113"
   clip-path="none" />
<path
   d="m 335.1,123.1 h -4.8 c -0.4,0 -0.8,0.4 -0.8,0.8 v 14.2 0 l -16,-15.4 h -1 c -0.4,0 -0.8,0.3 -0.8,0.7 v 26.9 c 0,0.4 0.4,0.8 0.8,0.8 h 4.8 c 0.4,0 0.8,-0.4 0.8,-0.8 v -14.9 0 l 15.8,15.9 c 0.1,0.1 0.4,0.2 0.5,0.2 h 0.6 c 0.4,0 0.8,-0.3 0.8,-0.7 v -26.9 c 0.1,-0.4 -0.3,-0.8 -0.7,-0.8"
   id="path115"
   clip-path="none" />
<path
   d="m 362,123.1 h -17.8 c -0.4,0 -0.8,0.4 -0.8,0.8 v 4.4 c 0,0.4 0.3,0.8 0.8,0.8 h 5.7 v 21.4 c 0,0.4 0.4,0.8 0.8,0.8 h 4.8 c 0.4,0 0.8,-0.4 0.8,-0.8 V 129 h 5.7 c 0.4,0 0.8,-0.4 0.8,-0.8 v -4.4 c -0.1,-0.3 -0.4,-0.7 -0.8,-0.7"
   id="path117"
   clip-path="none" />
<path
   d="M 58.6,0 C 26.3,0 0,26.3 0,58.6 v 99.6 H 117.2 V 58.6 C 117.2,26.2 90.9,0 58.6,0 m 55.6,155.2 H 3 V 58.6 C 3,27.9 27.9,3 58.6,3 c 30.7,0 55.6,24.9 55.6,55.6 z"
   id="path119"
   clip-path="none" />
<path
   d="m 58.5,7.1 c -28.7,0 -52,23.3 -52,52 v 92.8 h 104 V 59.1 c 0,-28.7 -23.3,-52 -52,-52 m 49,141.8 H 12.8 c 11.8,-5.1 48.3,-18.9 94.6,-19.2 v 19.2 z m 0,-22.2 c -9.6,0.1 -18.8,0.7 -27.5,1.7 v -27.9 c 6.2,6.9 14.4,11.7 23.3,13.9 l 0.7,-2.9 C 94.6,109.2 86.1,103.7 80.1,96 L 80,95.8 V 80.3 c 6.2,6.9 14.4,11.7 23.3,13.9 L 104,91.3 C 94.6,89 86.1,83.5 80.1,75.8 L 80,75.6 V 60 c 6.2,6.9 14.4,11.7 23.3,13.9 L 104,71 C 94.6,68.7 86.1,63.2 80.1,55.5 l -1.6,-2.4 -1.6,2.4 C 70.8,63.2 62.5,68.6 52.9,71 l 0.7,2.9 C 62.7,71.6 70.7,66.8 76.9,60 v 15.6 l -0.1,0.2 c -6.1,7.7 -14.4,13.1 -24,15.5 l 0.7,2.9 C 62.6,91.9 70.6,87.1 76.8,80.3 V 95.8 L 76.7,96 c -6.1,7.7 -14.4,13.1 -24,15.5 l 0.7,2.9 c 9.1,-2.3 17.1,-7.1 23.3,-13.9 v 28.3 c -16.2,2.1 -30.4,5.5 -41.7,8.9 v -13.8 c 3.6,3.5 8,6.1 12.8,7.3 l 0.7,-2.9 C 43.2,127 38.4,123.9 35,119.5 l -0.1,-0.1 v -7.2 c 3.6,3.5 8,6.1 12.8,7.3 l 0.7,-2.9 c -5.3,-1.3 -10.1,-4.4 -13.5,-8.8 l -0.1,-0.1 v -7.2 c 3.6,3.5 8,6.1 12.8,7.3 l 0.7,-2.9 C 43,103.6 38.2,100.5 34.8,96.1 l -1.5,-1.5 -1.1,1.1 -0.4,0.4 c -3.4,4.4 -8.2,7.5 -13.5,8.8 l 0.7,2.9 c 4.7,-1.2 9.1,-3.6 12.6,-7.1 v 7.2 c -3.4,4.3 -8.1,7.3 -13.4,8.6 l 0.7,2.9 c 4.7,-1.2 9.1,-3.6 12.6,-7.1 v 7.2 c -3.4,4.3 -8.1,7.3 -13.4,8.6 l 0.7,2.9 c 4.7,-1.2 9.1,-3.6 12.6,-7.1 v 14.5 c -11.3,3.5 -19.3,6.9 -22.8,8.5 v -88 c 0,-27 22,-49 49,-49 27,0 49,22 49,49 v 67.8 z"
   id="path121"
   clip-path="none" />
</svg>
